<mxfile host="app.diagrams.net" agent="Mozilla/5.0 (Macintosh; Intel Mac OS X 10_15_7) AppleWebKit/537.36 (KHTML, like Gecko) Chrome/139.0.0.0 Safari/537.36" version="28.1.2">
  <diagram name="Page-1" id="FVxEoBXLQK2MyZGi8L7j">
    <mxGraphModel dx="2034" dy="1224" grid="0" gridSize="10" guides="1" tooltips="1" connect="1" arrows="1" fold="1" page="0" pageScale="1" pageWidth="850" pageHeight="1100" math="0" shadow="0">
      <root>
        <mxCell id="0" />
        <mxCell id="1" parent="0" />
        <mxCell id="Qs5N4TBXDYmj6YVrBP2Y-13" value="" style="rounded=0;whiteSpace=wrap;html=1;strokeWidth=2;" vertex="1" parent="1">
          <mxGeometry x="-178" y="187" width="114" height="48" as="geometry" />
        </mxCell>
        <mxCell id="Qs5N4TBXDYmj6YVrBP2Y-10" value="" style="rounded=0;whiteSpace=wrap;html=1;strokeWidth=2;" vertex="1" parent="1">
          <mxGeometry x="182" y="244.5" width="172" height="44" as="geometry" />
        </mxCell>
        <mxCell id="Qs5N4TBXDYmj6YVrBP2Y-9" value="" style="rounded=0;whiteSpace=wrap;html=1;strokeWidth=2;" vertex="1" parent="1">
          <mxGeometry x="195" y="135.5" width="146" height="44" as="geometry" />
        </mxCell>
        <mxCell id="Qs5N4TBXDYmj6YVrBP2Y-6" value="" style="ellipse;whiteSpace=wrap;html=1;strokeWidth=2;" vertex="1" parent="1">
          <mxGeometry x="-406" y="-12" width="84" height="58" as="geometry" />
        </mxCell>
        <mxCell id="Qs5N4TBXDYmj6YVrBP2Y-1" value="&lt;font style=&quot;font-size: 16px;&quot;&gt;英文论文文献检索&lt;/font&gt;" style="text;html=1;align=center;verticalAlign=middle;whiteSpace=wrap;rounded=0;" vertex="1" parent="1">
          <mxGeometry x="200" y="142.5" width="134" height="30" as="geometry" />
        </mxCell>
        <mxCell id="Qs5N4TBXDYmj6YVrBP2Y-2" value="&lt;span style=&quot;font-size: 16px;&quot;&gt;中英双语博客文献检索&lt;/span&gt;" style="text;html=1;align=center;verticalAlign=middle;whiteSpace=wrap;rounded=0;" vertex="1" parent="1">
          <mxGeometry x="185.5" y="251.5" width="165" height="30" as="geometry" />
        </mxCell>
        <mxCell id="Qs5N4TBXDYmj6YVrBP2Y-3" value="" style="rhombus;whiteSpace=wrap;html=1;strokeWidth=2;" vertex="1" parent="1">
          <mxGeometry x="-334" y="160" width="108" height="102" as="geometry" />
        </mxCell>
        <mxCell id="Qs5N4TBXDYmj6YVrBP2Y-4" value="&lt;font style=&quot;font-size: 16px;&quot;&gt;领域路由&lt;/font&gt;" style="text;html=1;align=center;verticalAlign=middle;whiteSpace=wrap;rounded=0;" vertex="1" parent="1">
          <mxGeometry x="-315.5" y="196" width="71" height="30" as="geometry" />
        </mxCell>
        <mxCell id="Qs5N4TBXDYmj6YVrBP2Y-5" value="&lt;font style=&quot;font-size: 16px;&quot;&gt;开始&lt;/font&gt;" style="text;html=1;align=center;verticalAlign=middle;whiteSpace=wrap;rounded=0;" vertex="1" parent="1">
          <mxGeometry x="-384.5" y="4.5" width="41" height="25" as="geometry" />
        </mxCell>
        <mxCell id="Qs5N4TBXDYmj6YVrBP2Y-7" value="" style="ellipse;whiteSpace=wrap;html=1;strokeWidth=2;" vertex="1" parent="1">
          <mxGeometry x="1041" y="183" width="84" height="58" as="geometry" />
        </mxCell>
        <mxCell id="Qs5N4TBXDYmj6YVrBP2Y-8" value="&lt;span style=&quot;font-size: 16px;&quot;&gt;结束&lt;/span&gt;" style="text;html=1;align=center;verticalAlign=middle;whiteSpace=wrap;rounded=0;" vertex="1" parent="1">
          <mxGeometry x="1062.5" y="199.5" width="41" height="25" as="geometry" />
        </mxCell>
        <mxCell id="Qs5N4TBXDYmj6YVrBP2Y-12" value="&lt;font style=&quot;font-size: 16px;&quot;&gt;用户需求澄清&lt;/font&gt;" style="text;html=1;align=center;verticalAlign=middle;whiteSpace=wrap;rounded=0;" vertex="1" parent="1">
          <mxGeometry x="-171.5" y="197" width="101" height="30" as="geometry" />
        </mxCell>
        <mxCell id="Qs5N4TBXDYmj6YVrBP2Y-15" value="" style="rounded=0;whiteSpace=wrap;html=1;strokeWidth=2;" vertex="1" parent="1">
          <mxGeometry x="-21" y="187" width="114" height="48" as="geometry" />
        </mxCell>
        <mxCell id="Qs5N4TBXDYmj6YVrBP2Y-16" value="&lt;span style=&quot;font-size: 16px;&quot;&gt;用户查询翻译&lt;/span&gt;" style="text;html=1;align=center;verticalAlign=middle;whiteSpace=wrap;rounded=0;" vertex="1" parent="1">
          <mxGeometry x="-14.5" y="197" width="101" height="30" as="geometry" />
        </mxCell>
        <mxCell id="Qs5N4TBXDYmj6YVrBP2Y-17" value="" style="rounded=0;whiteSpace=wrap;html=1;strokeWidth=2;" vertex="1" parent="1">
          <mxGeometry x="838" y="192" width="142" height="38" as="geometry" />
        </mxCell>
        <mxCell id="Qs5N4TBXDYmj6YVrBP2Y-18" value="&lt;span style=&quot;font-size: 16px;&quot;&gt;领域专家模型生成&lt;/span&gt;" style="text;html=1;align=center;verticalAlign=middle;whiteSpace=wrap;rounded=0;" vertex="1" parent="1">
          <mxGeometry x="841.5" y="197" width="134.5" height="30" as="geometry" />
        </mxCell>
        <mxCell id="Qs5N4TBXDYmj6YVrBP2Y-19" value="" style="rounded=0;whiteSpace=wrap;html=1;strokeWidth=2;" vertex="1" parent="1">
          <mxGeometry x="463" y="189" width="114" height="48" as="geometry" />
        </mxCell>
        <mxCell id="Qs5N4TBXDYmj6YVrBP2Y-20" value="&lt;span style=&quot;font-size: 16px;&quot;&gt;重排序&lt;/span&gt;" style="text;html=1;align=center;verticalAlign=middle;whiteSpace=wrap;rounded=0;" vertex="1" parent="1">
          <mxGeometry x="469.5" y="199" width="101" height="30" as="geometry" />
        </mxCell>
        <mxCell id="Qs5N4TBXDYmj6YVrBP2Y-22" value="" style="rounded=0;whiteSpace=wrap;html=1;strokeWidth=2;" vertex="1" parent="1">
          <mxGeometry x="644" y="190.5" width="130" height="47" as="geometry" />
        </mxCell>
        <mxCell id="Qs5N4TBXDYmj6YVrBP2Y-23" value="&lt;span style=&quot;font-size: 16px;&quot;&gt;提示词模版填充&lt;/span&gt;" style="text;html=1;align=center;verticalAlign=middle;whiteSpace=wrap;rounded=0;" vertex="1" parent="1">
          <mxGeometry x="651.75" y="199" width="114.5" height="30" as="geometry" />
        </mxCell>
      </root>
    </mxGraphModel>
  </diagram>
</mxfile>
